<svg width="136" height="31" viewBox="0 0 136 31" fill="none" xmlns="http://www.w3.org/2000/svg">
<path d="M0.515625 4.10156H4.87109V28.3203H17.918V30H0.515625V4.10156ZM25.7891 10V24.2383C25.7891 24.7331 25.8997 25.2018 26.1211 25.6445C26.3555 26.0872 26.6745 26.4714 27.0781 26.7969C27.4818 27.1224 27.944 27.3828 28.4648 27.5781C28.9987 27.7604 29.5716 27.8516 30.1836 27.8516C30.5742 27.8516 30.9909 27.7669 31.4336 27.5977C31.8893 27.4284 32.332 27.2005 32.7617 26.9141C33.1914 26.6146 33.5885 26.2695 33.9531 25.8789C34.3307 25.4753 34.6497 25.0521 34.9102 24.6094V10H38.8555V30H34.9102V26.25C34.5586 26.8229 34.1159 27.3633 33.582 27.8711C33.0612 28.3789 32.4948 28.8216 31.8828 29.1992C31.2708 29.5768 30.6393 29.8763 29.9883 30.0977C29.3372 30.319 28.7188 30.4297 28.1328 30.4297C27.2604 30.4297 26.4401 30.2669 25.6719 29.9414C24.9036 29.6159 24.2331 29.1732 23.6602 28.6133C23.0872 28.0534 22.6315 27.3958 22.293 26.6406C21.9674 25.8854 21.8047 25.0846 21.8047 24.2383V10H25.7891ZM48.7578 9.62891H49.8906V13.7695C50.3984 13.2227 50.9714 12.7018 51.6094 12.207C52.2474 11.6992 52.9049 11.2565 53.582 10.8789C54.2591 10.4883 54.9362 10.1823 55.6133 9.96094C56.2904 9.73958 56.9349 9.62891 57.5469 9.62891C58.1328 9.62891 58.7253 9.73307 59.3242 9.94141C59.9362 10.1497 60.4961 10.4427 61.0039 10.8203C61.5247 11.1979 61.9674 11.6471 62.332 12.168C62.7096 12.6758 62.957 13.2357 63.0742 13.8477C63.3997 13.2617 63.849 12.7148 64.4219 12.207C65.0078 11.6862 65.6523 11.237 66.3555 10.8594C67.0586 10.4818 67.8008 10.1823 68.582 9.96094C69.3763 9.73958 70.151 9.62891 70.9062 9.62891C71.6615 9.62891 72.3646 9.79818 73.0156 10.1367C73.6797 10.4622 74.2591 10.9115 74.7539 11.4844C75.2487 12.0443 75.6393 12.7083 75.9258 13.4766C76.2122 14.2318 76.3555 15.0391 76.3555 15.8984V30H72.3906V16.4453C72.3906 15.8854 72.293 15.3581 72.0977 14.8633C71.9154 14.3555 71.6615 13.9128 71.3359 13.5352C71.0104 13.1576 70.6263 12.8581 70.1836 12.6367C69.7539 12.4154 69.2982 12.3047 68.8164 12.3047C68.2695 12.3047 67.7096 12.3828 67.1367 12.5391C66.5768 12.6823 66.043 12.8841 65.5352 13.1445C65.0273 13.4049 64.5651 13.7109 64.1484 14.0625C63.7318 14.401 63.3997 14.7656 63.1523 15.1562V30H59.1875V16.4453C59.1875 15.8854 59.0898 15.3581 58.8945 14.8633C58.6992 14.3555 58.4388 13.9128 58.1133 13.5352C57.7878 13.1576 57.4036 12.8581 56.9609 12.6367C56.5182 12.4154 56.056 12.3047 55.5742 12.3047C55.0664 12.3047 54.5391 12.3828 53.9922 12.5391C53.4583 12.6953 52.931 12.9036 52.4102 13.1641C51.9023 13.4245 51.4271 13.7305 50.9844 14.082C50.5417 14.4206 50.1771 14.7786 49.8906 15.1562V30H45.9062V10.7422L48.7578 9.62891ZM83.7188 10.7617L86.5117 9.62891H87.6641V30H83.7188V10.7617ZM83.4062 2.34375C83.4062 2.03125 83.4648 1.73828 83.582 1.46484C83.6992 1.19141 83.862 0.950521 84.0703 0.742188C84.2786 0.533854 84.5195 0.371094 84.793 0.253906C85.0664 0.136719 85.3594 0.078125 85.6719 0.078125C85.9844 0.078125 86.2773 0.136719 86.5508 0.253906C86.8242 0.371094 87.0651 0.533854 87.2734 0.742188C87.4818 0.950521 87.6445 1.19141 87.7617 1.46484C87.8789 1.73828 87.9375 2.03125 87.9375 2.34375C87.9375 2.65625 87.8789 2.94922 87.7617 3.22266C87.6445 3.49609 87.4818 3.73698 87.2734 3.94531C87.0651 4.15365 86.8242 4.31641 86.5508 4.43359C86.2773 4.55078 85.9844 4.60938 85.6719 4.60938C85.3594 4.60938 85.0664 4.55078 84.793 4.43359C84.5195 4.31641 84.2786 4.15365 84.0703 3.94531C83.862 3.73698 83.6992 3.49609 83.582 3.22266C83.4648 2.94922 83.4062 2.65625 83.4062 2.34375ZM97.8203 9.62891H98.9531V13.6719C100.164 12.3177 101.421 11.3086 102.723 10.6445C104.025 9.96745 105.346 9.62891 106.688 9.62891C107.391 9.62891 108.042 9.78516 108.641 10.0977C109.253 10.4102 109.786 10.8398 110.242 11.3867C110.698 11.9336 111.056 12.5781 111.316 13.3203C111.577 14.0495 111.707 14.8307 111.707 15.6641V30H107.742V16.3477C107.742 15.6836 107.664 15.1042 107.508 14.6094C107.352 14.1016 107.13 13.6784 106.844 13.3398C106.557 13.0013 106.219 12.7474 105.828 12.5781C105.451 12.3958 105.027 12.3047 104.559 12.3047C104.142 12.3047 103.699 12.3763 103.23 12.5195C102.762 12.6628 102.28 12.8646 101.785 13.125C101.303 13.3724 100.822 13.6719 100.34 14.0234C99.8581 14.375 99.3958 14.7656 98.9531 15.1953V30H94.9688V10.7422L97.8203 9.62891ZM131.199 30C130.678 29.7396 130.236 29.375 129.871 28.9062C129.52 28.4245 129.344 27.8776 129.344 27.2656C128.875 27.6172 128.413 27.9818 127.957 28.3594C127.514 28.737 127.026 29.082 126.492 29.3945C125.971 29.694 125.385 29.9414 124.734 30.1367C124.096 30.332 123.354 30.4297 122.508 30.4297C121.727 30.4297 121.017 30.2995 120.379 30.0391C119.754 29.7917 119.22 29.4466 118.777 29.0039C118.348 28.5612 118.009 28.0339 117.762 27.4219C117.527 26.8099 117.41 26.1523 117.41 25.4492C117.41 24.5898 117.579 23.8151 117.918 23.125C118.257 22.4349 118.719 21.8229 119.305 21.2891C119.904 20.7422 120.594 20.2604 121.375 19.8438C122.156 19.4141 122.99 19.0365 123.875 18.7109C124.76 18.3724 125.672 18.0729 126.609 17.8125C127.547 17.5521 128.458 17.3112 129.344 17.0898V15.8398C129.344 14.9284 129.279 14.1602 129.148 13.5352C129.018 12.9102 128.816 12.4089 128.543 12.0312C128.27 11.6406 127.918 11.3672 127.488 11.2109C127.072 11.0417 126.57 10.957 125.984 10.957C125.424 10.957 124.91 11.0677 124.441 11.2891C123.973 11.5104 123.556 11.8099 123.191 12.1875C122.84 12.5521 122.547 12.9883 122.312 13.4961C122.091 13.9909 121.941 14.5182 121.863 15.0781H118.23C118.335 14.2188 118.628 13.4505 119.109 12.7734C119.604 12.0964 120.223 11.5299 120.965 11.0742C121.707 10.6055 122.547 10.2474 123.484 10C124.435 9.7526 125.418 9.62891 126.434 9.62891C127.736 9.62891 128.829 9.75911 129.715 10.0195C130.6 10.2669 131.31 10.6185 131.844 11.0742C132.378 11.5299 132.755 12.0898 132.977 12.7539C133.211 13.4049 133.328 14.1276 133.328 14.9219V27.2656C133.328 27.8776 133.504 28.4245 133.855 28.9062C134.22 29.375 134.663 29.7396 135.184 30H131.199ZM129.344 18.3594C128.771 18.5417 128.178 18.75 127.566 18.9844C126.954 19.2188 126.355 19.4857 125.77 19.7852C125.184 20.0716 124.624 20.3841 124.09 20.7227C123.556 21.0612 123.087 21.4258 122.684 21.8164C122.28 22.207 121.961 22.6172 121.727 23.0469C121.492 23.4766 121.375 23.9258 121.375 24.3945C121.375 24.8893 121.466 25.3581 121.648 25.8008C121.831 26.2305 122.072 26.6146 122.371 26.9531C122.671 27.2786 123.016 27.5391 123.406 27.7344C123.797 27.9167 124.201 28.0078 124.617 28.0078C125.06 28.0078 125.483 27.9492 125.887 27.832C126.29 27.7148 126.681 27.5586 127.059 27.3633C127.436 27.1549 127.814 26.9206 128.191 26.6602C128.569 26.3997 128.953 26.1198 129.344 25.8203V18.3594Z" fill="white"/>
</svg>
